<svg id="visual" viewBox="0 0 960 540" width="960" height="540" xmlns="http://www.w3.org/2000/svg" xmlns:xlink="http://www.w3.org/1999/xlink" version="1.1"><rect x="0" y="0" width="960" height="540" fill="#1A1F39"></rect><defs><linearGradient id="grad1_0" x1="43.8%" y1="0%" x2="100%" y2="100%"><stop offset="14.444444444444446%" stop-color="#1a1f39" stop-opacity="1"></stop><stop offset="85.55555555555554%" stop-color="#1a1f39" stop-opacity="1"></stop></linearGradient></defs><defs><linearGradient id="grad2_0" x1="0%" y1="0%" x2="56.3%" y2="100%"><stop offset="14.444444444444446%" stop-color="#1a1f39" stop-opacity="1"></stop><stop offset="85.55555555555554%" stop-color="#1a1f39" stop-opacity="1"></stop></linearGradient></defs><g transform="translate(960, 0)"><path d="M0 297C-44 298.3 -88 299.6 -113.7 274.4C-139.3 249.2 -146.7 197.4 -166.2 166.2C-185.7 134.9 -217.3 124.2 -241.1 99.9C-265 75.6 -281 37.8 -297 0L0 0Z" fill="#7fffd4"></path></g><g transform="translate(0, 540)"><path d="M0 -297C25.9 -265 51.8 -233 93 -224.5C134.2 -216 190.7 -231 210 -210C229.4 -189 211.6 -132.1 219.9 -91.1C228.2 -50.1 262.6 -25 297 0L0 0Z" fill="#7fffd4"></path></g></svg>