<svg id="visual" viewBox="0 0 900 600" width="900" height="600" xmlns="http://www.w3.org/2000/svg" xmlns:xlink="http://www.w3.org/1999/xlink" version="1.1"><g stroke-width="1" stroke-linejoin="bevel"><path d="M436 304.9L508 215.4L406 249.1Z" fill="#0c2435" stroke="#0c2435"></path><path d="M508 215.4L423 179.4L406 249.1Z" fill="#277297" stroke="#277297"></path><path d="M436 304.9L543 318.9L508 215.4Z" fill="#112e42" stroke="#112e42"></path><path d="M543 318.9L571 240.1L508 215.4Z" fill="#00101c" stroke="#00101c"></path><path d="M430 48.7L393 133.4L423 179.4Z" fill="#246688" stroke="#246688"></path><path d="M406 249.1L391 368.9L436 304.9Z" fill="#19435d" stroke="#19435d"></path><path d="M436 304.9L528 441.6L543 318.9Z" fill="#246688" stroke="#246688"></path><path d="M423 179.4L326 237.1L406 249.1Z" fill="#00101c" stroke="#00101c"></path><path d="M406 249.1L326 237.1L391 368.9Z" fill="#19435d" stroke="#19435d"></path><path d="M558 86.7L423 179.4L508 215.4Z" fill="#246688" stroke="#246688"></path><path d="M423 179.4L307 212.4L326 237.1Z" fill="#081a28" stroke="#081a28"></path><path d="M393 133.4L307 212.4L423 179.4Z" fill="#112e42" stroke="#112e42"></path><path d="M289 410.6L397 450.6L391 368.9Z" fill="#205a7a" stroke="#205a7a"></path><path d="M397 450.6L411 422.6L391 368.9Z" fill="#0c2435" stroke="#0c2435"></path><path d="M391 368.9L411 422.6L436 304.9Z" fill="#1d4e6b" stroke="#1d4e6b"></path><path d="M635 304.9L641 245.1L571 240.1Z" fill="#277297" stroke="#277297"></path><path d="M571 240.1L558 86.7L508 215.4Z" fill="#297ea6" stroke="#297ea6"></path><path d="M635 304.9L571 240.1L543 318.9Z" fill="#297ea6" stroke="#297ea6"></path><path d="M666 399.6L635 304.9L543 318.9Z" fill="#277297" stroke="#277297"></path><path d="M668 186.4L558 86.7L571 240.1Z" fill="#19435d" stroke="#19435d"></path><path d="M411 422.6L528 441.6L436 304.9Z" fill="#00101c" stroke="#00101c"></path><path d="M558 86.7L430 48.7L423 179.4Z" fill="#0c2435" stroke="#0c2435"></path><path d="M393 133.4L282 118.7L307 212.4Z" fill="#081a28" stroke="#081a28"></path><path d="M269 352.9L391 368.9L326 237.1Z" fill="#00101c" stroke="#00101c"></path><path d="M411 422.6L464 475.3L528 441.6Z" fill="#112e42" stroke="#112e42"></path><path d="M747 163.4L668 186.4L765 269.1Z" fill="#0c2435" stroke="#0c2435"></path><path d="M641 245.1L668 186.4L571 240.1Z" fill="#112e42" stroke="#112e42"></path><path d="M244 279.1L269 352.9L326 237.1Z" fill="#277297" stroke="#277297"></path><path d="M397 450.6L464 475.3L411 422.6Z" fill="#246688" stroke="#246688"></path><path d="M307 212.4L244 279.1L326 237.1Z" fill="#0c2435" stroke="#0c2435"></path><path d="M195 274.1L244 279.1L179 183.4Z" fill="#1d4e6b" stroke="#1d4e6b"></path><path d="M358 47.7L282 118.7L393 133.4Z" fill="#15384f" stroke="#15384f"></path><path d="M430 48.7L358 47.7L393 133.4Z" fill="#081a28" stroke="#081a28"></path><path d="M269 352.9L289 410.6L391 368.9Z" fill="#246688" stroke="#246688"></path><path d="M464 475.3L508 488.3L528 441.6Z" fill="#297ea6" stroke="#297ea6"></path><path d="M528 441.6L666 399.6L543 318.9Z" fill="#205a7a" stroke="#205a7a"></path><path d="M632 477.3L666 399.6L528 441.6Z" fill="#081a28" stroke="#081a28"></path><path d="M635 304.9L765 269.1L641 245.1Z" fill="#1d4e6b" stroke="#1d4e6b"></path><path d="M528 0L442 0L430 48.7Z" fill="#0c2435" stroke="#0c2435"></path><path d="M430 48.7L354 0L358 47.7Z" fill="#0c2435" stroke="#0c2435"></path><path d="M668 186.4L668 90.7L558 86.7Z" fill="#1d4e6b" stroke="#1d4e6b"></path><path d="M558 86.7L528 0L430 48.7Z" fill="#19435d" stroke="#19435d"></path><path d="M600 0L528 0L558 86.7Z" fill="#19435d" stroke="#19435d"></path><path d="M244 279.1L184 324.9L269 352.9Z" fill="#246688" stroke="#246688"></path><path d="M269 352.9L152 437.6L289 410.6Z" fill="#1d4e6b" stroke="#1d4e6b"></path><path d="M179 183.4L244 279.1L307 212.4Z" fill="#246688" stroke="#246688"></path><path d="M358 47.7L271 0L282 118.7Z" fill="#00101c" stroke="#00101c"></path><path d="M442 0L354 0L430 48.7Z" fill="#1d4e6b" stroke="#1d4e6b"></path><path d="M508 488.3L632 477.3L528 441.6Z" fill="#081a28" stroke="#081a28"></path><path d="M632 477.3L685 430.6L666 399.6Z" fill="#00101c" stroke="#00101c"></path><path d="M666 399.6L724 384.9L635 304.9Z" fill="#246688" stroke="#246688"></path><path d="M668 186.4L708 107.7L668 90.7Z" fill="#19435d" stroke="#19435d"></path><path d="M214 505.3L356 516.3L289 410.6Z" fill="#0c2435" stroke="#0c2435"></path><path d="M289 410.6L356 516.3L397 450.6Z" fill="#277297" stroke="#277297"></path><path d="M397 450.6L356 516.3L464 475.3Z" fill="#205a7a" stroke="#205a7a"></path><path d="M464 475.3L459 600L508 488.3Z" fill="#277297" stroke="#277297"></path><path d="M508 488.3L599 600L632 477.3Z" fill="#0c2435" stroke="#0c2435"></path><path d="M747 163.4L708 107.7L668 186.4Z" fill="#0c2435" stroke="#0c2435"></path><path d="M668 90.7L600 0L558 86.7Z" fill="#277297" stroke="#277297"></path><path d="M703 0L600 0L668 90.7Z" fill="#00101c" stroke="#00101c"></path><path d="M195 274.1L184 324.9L244 279.1Z" fill="#297ea6" stroke="#297ea6"></path><path d="M685 430.6L724 384.9L666 399.6Z" fill="#19435d" stroke="#19435d"></path><path d="M197 71.7L179 183.4L282 118.7Z" fill="#246688" stroke="#246688"></path><path d="M282 118.7L179 183.4L307 212.4Z" fill="#297ea6" stroke="#297ea6"></path><path d="M195 274.1L116 245.1L184 324.9Z" fill="#277297" stroke="#277297"></path><path d="M765 269.1L668 186.4L641 245.1Z" fill="#15384f" stroke="#15384f"></path><path d="M724 384.9L765 269.1L635 304.9Z" fill="#081a28" stroke="#081a28"></path><path d="M354 0L271 0L358 47.7Z" fill="#15384f" stroke="#15384f"></path><path d="M271 0L197 71.7L282 118.7Z" fill="#277297" stroke="#277297"></path><path d="M765 269.1L796 156.4L747 163.4Z" fill="#112e42" stroke="#112e42"></path><path d="M747 163.4L796 156.4L708 107.7Z" fill="#277297" stroke="#277297"></path><path d="M708 107.7L703 0L668 90.7Z" fill="#205a7a" stroke="#205a7a"></path><path d="M356 516.3L459 600L464 475.3Z" fill="#112e42" stroke="#112e42"></path><path d="M67 209.4L116 245.1L179 183.4Z" fill="#0c2435" stroke="#0c2435"></path><path d="M179 183.4L116 245.1L195 274.1Z" fill="#277297" stroke="#277297"></path><path d="M778 0L703 0L708 107.7Z" fill="#15384f" stroke="#15384f"></path><path d="M459 600L541 600L508 488.3Z" fill="#081a28" stroke="#081a28"></path><path d="M632 477.3L753 533.3L685 430.6Z" fill="#15384f" stroke="#15384f"></path><path d="M849 405.6L847 324.9L724 384.9Z" fill="#00101c" stroke="#00101c"></path><path d="M152 437.6L214 505.3L289 410.6Z" fill="#081a28" stroke="#081a28"></path><path d="M356 516.3L386 600L459 600Z" fill="#246688" stroke="#246688"></path><path d="M152 437.6L269 352.9L184 324.9Z" fill="#00101c" stroke="#00101c"></path><path d="M260 558.3L386 600L356 516.3Z" fill="#246688" stroke="#246688"></path><path d="M99 344.9L152 437.6L184 324.9Z" fill="#15384f" stroke="#15384f"></path><path d="M227 600L260 558.3L208 600Z" fill="#246688" stroke="#246688"></path><path d="M214 505.3L260 558.3L356 516.3Z" fill="#0c2435" stroke="#0c2435"></path><path d="M541 600L599 600L508 488.3Z" fill="#297ea6" stroke="#297ea6"></path><path d="M116 245.1L99 344.9L184 324.9Z" fill="#00101c" stroke="#00101c"></path><path d="M271 0L174 0L197 71.7Z" fill="#0c2435" stroke="#0c2435"></path><path d="M72 86.7L67 209.4L179 183.4Z" fill="#00101c" stroke="#00101c"></path><path d="M900 142.4L830 120.7L796 156.4Z" fill="#1d4e6b" stroke="#1d4e6b"></path><path d="M796 156.4L830 120.7L708 107.7Z" fill="#297ea6" stroke="#297ea6"></path><path d="M854 294.1L796 156.4L765 269.1Z" fill="#19435d" stroke="#19435d"></path><path d="M769 525.3L724 384.9L685 430.6Z" fill="#1d4e6b" stroke="#1d4e6b"></path><path d="M724 384.9L847 324.9L765 269.1Z" fill="#15384f" stroke="#15384f"></path><path d="M847 324.9L854 294.1L765 269.1Z" fill="#297ea6" stroke="#297ea6"></path><path d="M72 86.7L179 183.4L197 71.7Z" fill="#0c2435" stroke="#0c2435"></path><path d="M116 245.1L0 296.9L99 344.9Z" fill="#081a28" stroke="#081a28"></path><path d="M732 600L753 533.3L632 477.3Z" fill="#15384f" stroke="#15384f"></path><path d="M830 120.7L778 0L708 107.7Z" fill="#15384f" stroke="#15384f"></path><path d="M753 533.3L769 525.3L685 430.6Z" fill="#277297" stroke="#277297"></path><path d="M769 525.3L849 405.6L724 384.9Z" fill="#112e42" stroke="#112e42"></path><path d="M847 324.9L900 286.1L854 294.1Z" fill="#0c2435" stroke="#0c2435"></path><path d="M208 600L260 558.3L214 505.3Z" fill="#00101c" stroke="#00101c"></path><path d="M260 558.3L227 600L386 600Z" fill="#277297" stroke="#277297"></path><path d="M208 600L214 505.3L103 511.3Z" fill="#19435d" stroke="#19435d"></path><path d="M174 0L72 86.7L197 71.7Z" fill="#297ea6" stroke="#297ea6"></path><path d="M103 511.3L214 505.3L152 437.6Z" fill="#246688" stroke="#246688"></path><path d="M900 376.9L900 286.1L847 324.9Z" fill="#081a28" stroke="#081a28"></path><path d="M854 294.1L900 142.4L796 156.4Z" fill="#081a28" stroke="#081a28"></path><path d="M753 533.3L814 600L769 525.3Z" fill="#081a28" stroke="#081a28"></path><path d="M900 402.6L900 376.9L849 405.6Z" fill="#0c2435" stroke="#0c2435"></path><path d="M599 600L732 600L632 477.3Z" fill="#1d4e6b" stroke="#1d4e6b"></path><path d="M45 419.6L103 511.3L152 437.6Z" fill="#246688" stroke="#246688"></path><path d="M45 419.6L152 437.6L99 344.9Z" fill="#205a7a" stroke="#205a7a"></path><path d="M900 286.1L900 142.4L854 294.1Z" fill="#246688" stroke="#246688"></path><path d="M830 120.7L900 51.7L778 0Z" fill="#297ea6" stroke="#297ea6"></path><path d="M0 296.9L116 245.1L67 209.4Z" fill="#112e42" stroke="#112e42"></path><path d="M0 296.9L45 419.6L99 344.9Z" fill="#112e42" stroke="#112e42"></path><path d="M849 405.6L900 376.9L847 324.9Z" fill="#112e42" stroke="#112e42"></path><path d="M900 402.6L849 405.6L900 470.3Z" fill="#277297" stroke="#277297"></path><path d="M900 470.3L849 405.6L769 525.3Z" fill="#1d4e6b" stroke="#1d4e6b"></path><path d="M0 200.4L0 244.1L67 209.4Z" fill="#15384f" stroke="#15384f"></path><path d="M0 244.1L0 296.9L67 209.4Z" fill="#1d4e6b" stroke="#1d4e6b"></path><path d="M0 96.7L0 200.4L67 209.4Z" fill="#00101c" stroke="#00101c"></path><path d="M174 0L61 0L72 86.7Z" fill="#19435d" stroke="#19435d"></path><path d="M72 86.7L0 96.7L67 209.4Z" fill="#205a7a" stroke="#205a7a"></path><path d="M900 142.4L900 51.7L830 120.7Z" fill="#081a28" stroke="#081a28"></path><path d="M814 600L900 470.3L769 525.3Z" fill="#246688" stroke="#246688"></path><path d="M0 0L0 96.7L72 86.7Z" fill="#15384f" stroke="#15384f"></path><path d="M732 600L814 600L753 533.3Z" fill="#112e42" stroke="#112e42"></path><path d="M0 296.9L0 421.6L45 419.6Z" fill="#081a28" stroke="#081a28"></path><path d="M45 419.6L0 557.3L103 511.3Z" fill="#00101c" stroke="#00101c"></path><path d="M900 51.7L900 0L778 0Z" fill="#246688" stroke="#246688"></path><path d="M0 557.3L95 600L103 511.3Z" fill="#081a28" stroke="#081a28"></path><path d="M103 511.3L95 600L208 600Z" fill="#246688" stroke="#246688"></path><path d="M61 0L0 0L72 86.7Z" fill="#15384f" stroke="#15384f"></path><path d="M0 421.6L0 557.3L45 419.6Z" fill="#1d4e6b" stroke="#1d4e6b"></path><path d="M814 600L900 600L900 470.3Z" fill="#277297" stroke="#277297"></path><path d="M0 557.3L0 600L95 600Z" fill="#00101c" stroke="#00101c"></path></g></svg>